<?xml version="1.0" encoding="UTF-8" standalone="no"?>
<svg
   xmlns:dc="http://purl.org/dc/elements/1.1/"
   xmlns:cc="http://creativecommons.org/ns#"
   xmlns:rdf="http://www.w3.org/1999/02/22-rdf-syntax-ns#"
   xmlns:svg="http://www.w3.org/2000/svg"
   xmlns="http://www.w3.org/2000/svg"
   xmlns:sodipodi="http://sodipodi.sourceforge.net/DTD/sodipodi-0.dtd"
   xmlns:inkscape="http://www.inkscape.org/namespaces/inkscape"
   viewBox="0 0 264.56733 90.708665"
   height="2.4000001cm"
   width="7.00001cm"
   xml:space="preserve"
   id="svg4536"
   version="1.1"
   sodipodi:docname="logo.svg"
   inkscape:version="0.92.5 (2060ec1f9f, 2020-04-08)"><sodipodi:namedview
     pagecolor="#ffffff"
     bordercolor="#666666"
     borderopacity="1"
     objecttolerance="10"
     gridtolerance="10"
     guidetolerance="10"
     inkscape:pageopacity="0"
     inkscape:pageshadow="2"
     inkscape:window-width="1711"
     inkscape:window-height="1106"
     id="namedview13"
     showgrid="false"
     units="cm"
     inkscape:zoom="1"
     inkscape:cx="329.89509"
     inkscape:cy="94.02313"
     inkscape:window-x="42"
     inkscape:window-y="67"
     inkscape:window-maximized="0"
     inkscape:current-layer="svg4536" /><metadata
     id="metadata4542"><rdf:RDF><cc:Work
         rdf:about=""><dc:format>image/svg+xml</dc:format><dc:type
           rdf:resource="http://purl.org/dc/dcmitype/StillImage" /><dc:title></dc:title></cc:Work></rdf:RDF></metadata><defs
     id="defs4540" /><g
     transform="matrix(0.50561172,0,0,-0.50561172,4.0056627,88.659218)"
     id="g4544"><g
       transform="scale(0.1)"
       id="g4546"><path
         id="path4548"
         style="fill:#00adef;fill-opacity:1;fill-rule:nonzero;stroke:none"
         d="m 4379.11,170.895 h -235.72 l -0.03,0.003 h -568.85 c -32.78,0 -51.34,4.399 -56.2,19.676 -1.33,4.203 -2.02,62.531 -2.33,139.996 h 391.07 c 120.5,0 192.53,116.457 192.53,229.043 v 165.164 c 0,1.157 -0.3,2.235 -0.34,3.379 0.21,2.449 0.73,4.809 0.73,7.313 v 90.519 c 0,120.496 -116.45,192.532 -229.04,192.532 h -295.71 c -112.58,0 -229.04,-72.036 -229.04,-192.532 V 758.41 c -0.2,-2.379 -0.72,-4.66 -0.72,-7.09 V 500.973 c -75.5,-0.414 -189.57,-0.719 -199.06,2.297 -15.27,4.859 -19.68,23.418 -19.68,56.195 v 616.215 h 908.15 c 47.2,0 85.45,38.25 85.45,85.45 0,47.2 -38.25,85.44 -85.45,85.44 h -908.15 v 280.15 c 0,47.19 -38.25,85.45 -85.44,85.45 -47.2,0 -85.45,-38.26 -85.45,-85.45 v -280.15 h -841.48 c -47.2,0 -85.45,-38.24 -85.45,-85.44 0,-47.2 38.25,-85.45 85.45,-85.45 h 841.48 V 559.465 c 0,-112.586 72.03,-229.043 192.52,-229.043 h 197.11 V 192.527 C 3345.46,72.0313 3461.92,0 3574.51,0 h 804.6 c 47.2,0 85.45,38.2461 85.45,85.4453 0,47.2027 -38.25,85.4497 -85.45,85.4497 z m -860.08,657.046 c 4.85,15.274 23.42,19.676 56.19,19.676 h 295.71 c 32.78,0 51.34,-4.402 56.2,-19.676 4.2,-13.226 1.55,-268.328 1.55,-268.328 0,-32.777 -4.4,-51.336 -19.68,-56.191 -9.99,-3.18 -267.79,-2.668 -393.23,-2.231 0.07,94.754 -0.95,313.524 3.26,326.75"
         inkscape:connector-curvature="0" /><path
         id="path4550"
         style="fill:#00adef;fill-opacity:1;fill-rule:nonzero;stroke:none"
         d="m 1816.09,329.922 h 90.48 c 47.21,0 85.45,38.246 85.45,85.449 0,47.199 -38.24,85.445 -85.45,85.445 0,0 -77.66,-2.304 -90.42,1.598 -10.19,3.117 -21.7,1.465 -21.7,56.508 V 1627.52 c 0,47.2 -38.24,85.45 -85.44,85.45 -47.21,0 -85.45,-38.25 -85.45,-85.45 V 558.922 c 0,-112.567 72.01,-229 192.53,-229"
         inkscape:connector-curvature="0" /><path
         id="path4552"
         style="fill:#00adef;fill-opacity:1;fill-rule:nonzero;stroke:none"
         d="m 2379.57,500.582 h -97.8 c -32.77,0 -51.33,4.402 -56.19,19.676 -3.07,9.656 -1.95,253.949 -1.95,253.949 0,2.016 0.01,45.863 1.95,51.953 4.86,15.274 23.42,19.676 56.19,19.676 h 295.71 c 32.78,0 51.34,-4.402 56.2,-19.676 4.2,-13.226 1.95,-92.472 1.95,-92.472 0,-47.2 38.25,-85.45 85.45,-85.45 47.19,0 85.44,38.25 85.44,85.45 v 90.519 c 0,120.496 -116.45,192.523 -229.04,192.523 h -295.71 c -112.58,0 -229.04,-72.027 -229.04,-192.523 V 522.211 c 0,-120.496 116.46,-192.527 229.04,-192.527 h 103.78 c 0,0 215.71,1.746 228.93,-2.461 15.27,-4.856 19.68,-23.418 19.68,-56.192 v -41.754 c 0,-32.777 -4.41,-51.336 -19.68,-56.191 -13.22,-4.207 -1048.82,-1.953 -1051.66,-1.953 0,0 -79.25,-2.254 -92.47,1.953 -15.28,4.855 -19.67,23.414 -19.67,56.191 l 2.25,560.961 c 0,112.586 -72.04,229.042 -192.53,229.042 h -90.52 c -47.2,0 -85.45,-38.253 -85.45,-85.448 0,-47.199 38.25,-85.449 85.45,-85.449 0,0 79.25,2.254 92.47,-1.953 15.28,-4.856 19.68,-23.414 19.68,-56.192 l -2.25,-560.961 c 0,-112.586 72.03,-229.042625 192.52,-229.042625 h 90.52 c 2.84,0 1049.71,0 1049.71,0 120.49,0 192.52,116.456625 192.52,229.042625 v 41.754 c 0,112.582 -72.03,229.039 -192.52,229.039 l -232.96,0.512"
         inkscape:connector-curvature="0" /><path
         id="path4554"
         style="fill:#00adef;fill-opacity:1;fill-rule:nonzero;stroke:none"
         d="m 1074.47,500.137 c 0,0 -79.251,-2.25 -92.474,1.953 -8.508,2.707 -15.144,3.035 -15.144,32.824 v 436.75 c 0,30.836 -1.512,67.656 -4.536,93.706 -3.328,28.73 -6.453,47.75 -10.984,62.52 -17.461,71.07 -53.512,135.84 -126.641,179.19 -85.14,50.43 -189.308,50.65 -293.39,0.53 -49.926,-24.06 -113.117,-70.2 -169.391,-115.33 v 434.44 c 0,47.2 -38.246,85.45 -85.449,85.45 -47.199,0 -85.445,-38.25 -85.445,-85.45 V 500.133 H 85.4453 C 38.2461,500.133 0,461.891 0,414.688 0,367.484 38.2461,329.242 85.4453,329.242 H 475.551 c 47.203,0 85.445,38.242 85.445,85.446 0,47.203 -38.242,85.445 -85.445,85.445 H 361.91 v 467.793 c 60.613,54.374 178.223,154.254 243.543,185.704 35.965,17.35 88.035,32.54 132.121,6.42 21.672,-12.85 44.422,-33.57 53.848,-106.6 V 558.285 c 0,-112.586 72.027,-229.043 192.523,-229.043 h 90.525 c 47.19,0 85.45,38.25 85.45,85.446 0,47.199 -38.26,85.449 -85.45,85.449"
         inkscape:connector-curvature="0" /><path
         id="path4556"
         style="fill:#00adef;fill-opacity:1;fill-rule:nonzero;stroke:none"
         d="m 4932.01,1284.5 c -85.14,50.46 -189.36,50.6 -293.39,0.54 -55.63,-26.81 -127.79,-81.02 -188.41,-130.71 v 82.08 c 0,47.2 -38.25,85.45 -85.45,85.45 -47.2,0 -85.45,-38.25 -85.45,-85.45 V 416.637 c 0,-47.203 38.25,-85.446 85.45,-85.446 47.2,0 85.45,38.243 85.45,85.446 v 511.426 c 50.69,46.785 189.24,167.677 262.57,202.987 35.96,17.36 88.08,32.57 132.09,6.45 28.26,-16.77 58.41,-46.53 58.41,-188.414 0,-47.199 38.24,-85.445 85.45,-85.445 47.2,0 85.44,38.246 85.44,85.445 0,124.164 -16.88,261.124 -142.16,335.414"
         inkscape:connector-curvature="0" /><path
         id="path4558"
         style="fill:#00adef;fill-opacity:1;fill-rule:nonzero;stroke:none"
         d="m 1228.71,1154.87 h 85.94 c 40.72,0 70.36,17.16 70.36,70.31 v 71.89 c 0,53.14 -29.64,70.31 -70.36,70.31 h -85.94 c -40.68,0 -70.31,-17.17 -70.31,-70.31 v -71.89 c 0,-53.15 29.63,-70.31 70.31,-70.31"
         inkscape:connector-curvature="0" /></g></g></svg>